<svg width="23" height="23" viewBox="0 0 23 23" fill="none" xmlns="http://www.w3.org/2000/svg">
<path d="M9.59019 1C7.89121 1 6.23039 1.50381 4.81774 2.44771C3.40509 3.39161 2.30406 4.73321 1.65389 6.30286C1.00372 7.87251 0.833608 9.59971 1.16506 11.266C1.49652 12.9324 2.31465 14.463 3.51601 15.6644C4.71737 16.8657 6.24799 17.6839 7.91433 18.0153C9.58066 18.3468 11.3079 18.1767 12.8775 17.5265C14.4472 16.8763 15.7888 15.7753 16.7327 14.3626C17.6766 12.95 18.1804 11.2892 18.1804 9.59018C18.1802 7.31197 17.2751 5.12711 15.6642 3.51617C14.0533 1.90523 11.8684 1.00015 9.59019 1V1Z" stroke="white" stroke-width="1.00189" stroke-miterlimit="10"/>
<path d="M15.9983 15.9992L22 22.0009" stroke="white" stroke-width="1.00189" stroke-miterlimit="10" stroke-linecap="round"/>
</svg>
