<svg width="16" height="9" viewBox="0 0 16 9" fill="none" xmlns="http://www.w3.org/2000/svg">
<path d="M10.9118 5.53867L13.6624 2.78807M7.41102 3.538L9.41146 5.53843M2.65995 6.78871L5.91066 3.538M15.1627 2.03788C15.1627 2.45219 14.8268 2.78805 14.4125 2.78805C13.9982 2.78805 13.6623 2.45219 13.6623 2.03788C13.6623 1.62358 13.9982 1.28772 14.4125 1.28772C14.8268 1.28772 15.1627 1.62358 15.1627 2.03788ZM10.9118 6.28886C10.9118 6.70317 10.5759 7.03903 10.1616 7.03903C9.7473 7.03903 9.41144 6.70317 9.41144 6.28886C9.41144 5.87456 9.7473 5.5387 10.1616 5.5387C10.5759 5.5387 10.9118 5.87456 10.9118 6.28886ZM7.41102 2.78781C7.41102 3.20212 7.07516 3.53798 6.66085 3.53798C6.24655 3.53798 5.91069 3.20212 5.91069 2.78781C5.91069 2.37351 6.24655 2.03765 6.66085 2.03765C7.07516 2.03765 7.41102 2.37351 7.41102 2.78781ZM2.65999 7.53891C2.65999 7.95321 2.32413 8.28907 1.90983 8.28907C1.49553 8.28907 1.15967 7.95321 1.15967 7.53891C1.15967 7.12461 1.49553 6.78875 1.90983 6.78875C2.32413 6.78875 2.65999 7.12461 2.65999 7.53891Z" stroke="black" stroke-width="1.00189" stroke-linecap="round" stroke-linejoin="round"/>
</svg>
